# xmcd
#
# Track frame offsets:
#	150
#	11570
#	22104
#	37532
#	51536
#	65553
#	79796
#	96576
#	109684
#	124710
#	139952
#	153705
#	168177
#	180325
#	192058
#	206532
#	220655
#	232120
#
# Disc length: 3312 seconds
#
# Revision: 0
# Processed by: cddbd v1.5.2PL0 Copyright (c) Steve Scherf et al.
# Submitted via: EZCDAudioConverter 2.2.2.1
#
DISCID=f70cee12
DTITLE=JOAO MARCELO E JULIANO - FRASES
DYEAR=2015
DGENRE=SERTANEJO
TTITLE0=JOAO MARCELO E JULIANO - ACEITA QUE DOI MENOS
TTITLE1=JOAO MARCELO E JULIANO - LEVANTA O COPO
TTITLE2=JOAO MARCELO E JULIANO - FRASES
TTITLE3=JOAO MARCELO E JULIANO - OLHOS CERTOS
TTITLE4=JOAO MARCELO E JULIANO - CONSPIRACAO
TTITLE5=JOAO MARCELO E JULIANO E LU E ROBERTINHO - I DONT WANNA MISS A THING_Q
TTITLE5=UIMICA
TTITLE6=JOAO MARCELO E JULIANO E PEDRO PAULO E ALEX - TA DE SACANAGEM
TTITLE7=JOAO MARCELO E JULIANO - GRAZADEUS
TTITLE8=JOAO MARCELO E JULIANO - ABANA PAPAI
TTITLE9=JOAO MARCELO E JULIANO - A PROVA DE FOGO
TTITLE10=JOAO MARCELO E JULIANO - SINAL DE OCUPADO
TTITLE11=JOAO MARCELO E JULIANO E ISRAEL E RODOLFO - DESACERTO DO CORACAO
TTITLE12=JOAO MARCELO E JULIANO E JOAO BOSCO E VINICIUS - FIM DA LINHA
TTITLE13=JOAO MARCELO E JULIANO - TANTOS VESTIGIOS
TTITLE14=JOAO MARCELO E JULIANO - OS DIAS SEM VOCE
TTITLE15=JOAO MARCELO E JULIANO - NAO ME DIGA NAO
TTITLE16=JOAO MARCELO E JULIANO - POSTE APAGADO
TTITLE17=JOAO MARCELO E JULIANO - POUT POURRI BIJOUTERIA_ESQUECI
EXTD=
EXTT0=
EXTT1=
EXTT2=
EXTT3=
EXTT4=
EXTT5=
EXTT6=
EXTT7=
EXTT8=
EXTT9=
EXTT10=
EXTT11=
EXTT12=
EXTT13=
EXTT14=
EXTT15=
EXTT16=
EXTT17=
PLAYORDER=
